<svg width="41" height="41" viewBox="0 0 41 41" fill="none" xmlns="http://www.w3.org/2000/svg">
<rect x="1.33008" y="1.37988" width="39" height="39" rx="19.5" stroke="white"/>
<path d="M12.4297 13.6702C12.4297 13.0065 12.9659 12.4702 13.6297 12.4702C22.2472 12.4702 29.2297 19.4527 29.2297 28.0702C29.2297 28.734 28.6934 29.2702 28.0297 29.2702C27.3659 29.2702 26.8297 28.734 26.8297 28.0702C26.8297 20.7802 20.9197 14.8702 13.6297 14.8702C12.9659 14.8702 12.4297 14.334 12.4297 13.6702ZM17.2297 26.8702C17.2297 28.194 16.1534 29.2702 14.8297 29.2702C13.5059 29.2702 12.4297 28.194 12.4297 26.8702C12.4297 25.5465 13.5059 24.4702 14.8297 24.4702C16.1534 24.4702 17.2297 25.5465 17.2297 26.8702ZM13.6297 17.2702C19.5959 17.2702 24.4297 22.104 24.4297 28.0702C24.4297 28.734 23.8934 29.2702 23.2297 29.2702C22.5659 29.2702 22.0297 28.734 22.0297 28.0702C22.0297 23.4315 18.2684 19.6702 13.6297 19.6702C12.9659 19.6702 12.4297 19.134 12.4297 18.4702C12.4297 17.8065 12.9659 17.2702 13.6297 17.2702Z" fill="white"/>
</svg>
