<svg width="17" height="17" viewBox="0 0 17 17" fill="none" xmlns="http://www.w3.org/2000/svg">
	<path d="M10.6309 0.879883C10.0777 0.879883 9.63086 1.32676 9.63086 1.87988C9.63086 2.43301 10.0777 2.87988 10.6309 2.87988H13.2152L6.92461 9.17363C6.53398 9.56426 6.53398 10.1986 6.92461 10.5893C7.31523 10.9799 7.94961 10.9799 8.34023 10.5893L14.6309 4.29551V6.87988C14.6309 7.43301 15.0777 7.87988 15.6309 7.87988C16.184 7.87988 16.6309 7.43301 16.6309 6.87988V1.87988C16.6309 1.32676 16.184 0.879883 15.6309 0.879883H10.6309ZM3.13086 1.87988C1.74961 1.87988 0.630859 2.99863 0.630859 4.37988V14.3799C0.630859 15.7611 1.74961 16.8799 3.13086 16.8799H13.1309C14.5121 16.8799 15.6309 15.7611 15.6309 14.3799V10.8799C15.6309 10.3268 15.184 9.87988 14.6309 9.87988C14.0777 9.87988 13.6309 10.3268 13.6309 10.8799V14.3799C13.6309 14.6549 13.4059 14.8799 13.1309 14.8799H3.13086C2.85586 14.8799 2.63086 14.6549 2.63086 14.3799V4.37988C2.63086 4.10488 2.85586 3.87988 3.13086 3.87988H6.63086C7.18398 3.87988 7.63086 3.43301 7.63086 2.87988C7.63086 2.32676 7.18398 1.87988 6.63086 1.87988H3.13086Z" fill="white"/>
</svg>
