<svg className="hover:scale-105" width="44" height="44" viewBox="0 0 44 44" fill="none" xmlns="http://www.w3.org/2000/svg">
	<rect x="0.490234" y="0.5" width="43" height="43" rx="21.5" stroke="#7A00E6" />
	<path d="M22.9902 15C22.9902 14.4469 22.5434 14 21.9902 14C21.4371 14 20.9902 14.4469 20.9902 15V22.5844L18.6965 20.2906C18.3059 19.9 17.6715 19.9 17.2809 20.2906C16.8902 20.6813 16.8902 21.3156 17.2809 21.7063L21.2809 25.7063C21.6715 26.0969 22.3059 26.0969 22.6965 25.7063L26.6965 21.7063C27.0871 21.3156 27.0871 20.6813 26.6965 20.2906C26.3059 19.9 25.6715 19.9 25.2809 20.2906L22.9902 22.5844V15ZM15.9902 25C14.8871 25 13.9902 25.8969 13.9902 27V28C13.9902 29.1031 14.8871 30 15.9902 30H27.9902C29.0934 30 29.9902 29.1031 29.9902 28V27C29.9902 25.8969 29.0934 25 27.9902 25H24.8184L23.4027 26.4156C22.6215 27.1969 21.3559 27.1969 20.5746 26.4156L19.1621 25H15.9902ZM27.4902 26.75C27.6891 26.75 27.8799 26.829 28.0206 26.9697C28.1612 27.1103 28.2402 27.3011 28.2402 27.5C28.2402 27.6989 28.1612 27.8897 28.0206 28.0303C27.8799 28.171 27.6891 28.25 27.4902 28.25C27.2913 28.25 27.1006 28.171 26.9599 28.0303C26.8193 27.8897 26.7402 27.6989 26.7402 27.5C26.7402 27.3011 26.8193 27.1103 26.9599 26.9697C27.1006 26.829 27.2913 26.75 27.4902 26.75Z" fill="#7A00E6" />
</svg>
