<svg width="41" height="41" viewBox="0 0 41 41" fill="none" xmlns="http://www.w3.org/2000/svg">
<rect x="1.33008" y="1.37988" width="39" height="39" rx="19.5" stroke="white"/>
<path d="M20.8343 16.5574C18.4493 16.5574 16.5255 18.4812 16.5255 20.8662C16.5255 23.2512 18.4493 25.1749 20.8343 25.1749C23.2193 25.1749 25.143 23.2512 25.143 20.8662C25.143 18.4812 23.2193 16.5574 20.8343 16.5574ZM20.8343 23.6674C19.293 23.6674 18.033 22.4112 18.033 20.8662C18.033 19.3212 19.2893 18.0649 20.8343 18.0649C22.3793 18.0649 23.6355 19.3212 23.6355 20.8662C23.6355 22.4112 22.3755 23.6674 20.8343 23.6674ZM26.3243 16.3812C26.3243 16.9399 25.8743 17.3862 25.3193 17.3862C24.7605 17.3862 24.3143 16.9362 24.3143 16.3812C24.3143 15.8262 24.7643 15.3762 25.3193 15.3762C25.8743 15.3762 26.3243 15.8262 26.3243 16.3812ZM29.178 17.4012C29.1143 16.0549 28.8068 14.8624 27.8205 13.8799C26.838 12.8974 25.6455 12.5899 24.2993 12.5224C22.9118 12.4437 18.753 12.4437 17.3655 12.5224C16.023 12.5862 14.8305 12.8937 13.8443 13.8762C12.858 14.8587 12.5543 16.0512 12.4868 17.3974C12.408 18.7849 12.408 22.9437 12.4868 24.3312C12.5505 25.6774 12.858 26.8699 13.8443 27.8524C14.8305 28.8349 16.0193 29.1424 17.3655 29.2099C18.753 29.2887 22.9118 29.2887 24.2993 29.2099C25.6455 29.1462 26.838 28.8387 27.8205 27.8524C28.803 26.8699 29.1105 25.6774 29.178 24.3312C29.2568 22.9437 29.2568 18.7887 29.178 17.4012ZM27.3855 25.8199C27.093 26.5549 26.5268 27.1212 25.788 27.4174C24.6818 27.8562 22.0568 27.7549 20.8343 27.7549C19.6118 27.7549 16.983 27.8524 15.8805 27.4174C15.1455 27.1249 14.5793 26.5587 14.283 25.8199C13.8443 24.7137 13.9455 22.0887 13.9455 20.8662C13.9455 19.6437 13.848 17.0149 14.283 15.9124C14.5755 15.1774 15.1418 14.6112 15.8805 14.3149C16.9868 13.8762 19.6118 13.9774 20.8343 13.9774C22.0568 13.9774 24.6855 13.8799 25.788 14.3149C26.523 14.6074 27.0893 15.1737 27.3855 15.9124C27.8243 17.0187 27.723 19.6437 27.723 20.8662C27.723 22.0887 27.8243 24.7174 27.3855 25.8199Z" fill="white"/>
</svg>
