<svg width="41" height="41" viewBox="0 0 41 41" fill="none" xmlns="http://www.w3.org/2000/svg">
<rect x="1.33008" y="1.37988" width="39" height="39" rx="19.5" stroke="white"/>
<g clip-path="url(#clip0_355_242)">
<path d="M16.1902 28.0701H12.7072V16.8539H16.1902V28.0701ZM14.4468 15.3239C13.3331 15.3239 12.4297 14.4014 12.4297 13.2876C12.4297 12.7527 12.6422 12.2396 13.0205 11.8613C13.3988 11.483 13.9118 11.2705 14.4468 11.2705C14.9818 11.2705 15.4949 11.483 15.8731 11.8613C16.2514 12.2396 16.4639 12.7527 16.4639 13.2876C16.4639 14.4014 15.5602 15.3239 14.4468 15.3239ZM29.2259 28.0701H25.7504V22.6101C25.7504 21.3089 25.7242 19.6401 23.9396 19.6401C22.1287 19.6401 21.8512 21.0539 21.8512 22.5164V28.0701H18.3719V16.8539H21.7124V18.3839H21.7612C22.2262 17.5026 23.3621 16.5726 25.0567 16.5726C28.5817 16.5726 29.2297 18.8939 29.2297 21.9089V28.0701H29.2259Z" fill="white"/>
</g>
<defs>
<clipPath id="clip0_355_242">
<rect width="19.2" height="19.2" fill="white" transform="translate(11.2305 11.27)"/>
</clipPath>
</defs>
</svg>
