<svg width="80" height="22" viewBox="0 0 80 22" fill="none" xmlns="http://www.w3.org/2000/svg">
<g clip-path="url(#clip0_409_4)">
<path d="M28.4057 7.29145C26.5895 6.58049 24.6556 6.21743 22.7051 6.22122C18.3338 6.22122 15.2656 9.14389 15.2656 13.7488C15.2656 18.4061 17.9277 21.2764 22.6461 21.2764C24.6249 21.2899 26.5854 20.8967 28.4057 20.1211C28.6384 20.0363 28.836 19.8762 28.9671 19.6663C29.0982 19.4563 29.1553 19.2086 29.1294 18.9625V8.45004C29.1294 7.78238 28.8707 7.46492 28.4057 7.29145ZM25.3671 16.75C25.3671 17.1853 25.1346 17.3882 24.6435 17.5322C24.0047 17.7139 23.3429 17.8021 22.6788 17.7941C20.8255 17.7941 19.077 16.6944 19.077 13.7423C19.077 10.7901 20.8124 9.69373 22.6788 9.69373C23.3428 9.68465 24.0045 9.77175 24.6435 9.95229C25.1346 10.0963 25.3671 10.2992 25.3671 10.7345V16.75Z" fill="black"/>
<path d="M4.03398 11.053C4.03398 10.1693 4.93114 9.60638 6.46683 9.60638C7.94358 9.60638 9.36138 10.0973 10.8381 10.9155C10.9689 10.9927 11.1185 11.0324 11.2704 11.0301C11.4057 11.0283 11.5381 10.9899 11.6534 10.9191C11.7687 10.8482 11.8626 10.7474 11.9252 10.6275L12.8224 8.71615C12.8956 8.56268 12.9347 8.39521 12.937 8.22522C12.9373 8.10625 12.9051 7.98945 12.844 7.88738C12.7828 7.78532 12.695 7.70183 12.5899 7.64591C10.7595 6.62407 8.69435 6.09619 6.59781 6.11422C2.72094 6.11422 0.232422 8.19577 0.232422 11.3214C0.232422 17.4547 9.55132 15.0786 9.55132 19.3333C9.55439 19.6973 9.4957 20.0592 9.37776 20.4036C9.36018 20.4598 9.35027 20.5181 9.3483 20.577C9.34552 20.6336 9.35512 20.6901 9.37644 20.7426C9.39777 20.7951 9.43031 20.8424 9.47177 20.881C9.51324 20.9196 9.56266 20.9488 9.61655 20.9664C9.67044 20.9839 9.72749 20.9896 9.78378 20.9828H12.3869C12.8224 20.9828 12.9959 20.8388 13.14 20.4036C13.301 19.8732 13.3795 19.3213 13.3725 18.7671C13.3562 12.1821 4.03398 13.7629 4.03398 11.053Z" fill="black"/>
<path d="M39.2007 6.22119C37.2161 6.23484 35.2483 6.58681 33.3821 7.26196C33.1495 7.34674 32.9519 7.50684 32.8208 7.71677C32.6897 7.92671 32.6325 8.17442 32.6585 8.42055V20.396C32.6537 20.4733 32.6654 20.5507 32.6928 20.6232C32.7203 20.6956 32.7628 20.7614 32.8176 20.8162C32.8724 20.871 32.9382 20.9135 33.0107 20.9409C33.0832 20.9684 33.1607 20.9801 33.238 20.9753H35.8575C35.9349 20.9801 36.0124 20.9684 36.0849 20.9409C36.1574 20.9135 36.2232 20.871 36.278 20.8162C36.3328 20.7614 36.3753 20.6956 36.4028 20.6232C36.4302 20.5507 36.4419 20.4733 36.4371 20.396V10.6756C36.4371 10.2435 36.6663 10.0406 37.1313 9.9228C37.832 9.75321 38.552 9.67619 39.2727 9.6937C40.8346 9.6937 42.0789 10.417 42.0789 12.1516V20.396C42.0741 20.4733 42.0858 20.5507 42.1132 20.6232C42.1407 20.6956 42.1832 20.7614 42.238 20.8162C42.2928 20.871 42.3586 20.9135 42.4311 20.9409C42.5036 20.9684 42.5811 20.9801 42.6584 20.9753H45.278C45.355 20.9796 45.4322 20.9675 45.5043 20.9399C45.5764 20.9122 45.6418 20.8696 45.6962 20.8149C45.7507 20.7602 45.7929 20.6946 45.8201 20.6224C45.8474 20.5502 45.859 20.473 45.8543 20.396V11.6607C45.8281 8.12927 43.6572 6.22119 39.2007 6.22119Z" fill="black"/>
<path d="M55.7858 6.22119C51.444 6.22119 48.6084 9.37296 48.6084 13.7488C48.6084 18.1246 51.444 21.2764 55.9888 21.2764C60.3307 21.2764 63.1663 18.1246 63.1663 13.7488C63.1663 9.37296 60.3307 6.22119 55.7858 6.22119ZM55.9888 17.794C53.8474 17.794 52.4296 16.4031 52.4296 13.7422C52.4296 11.0814 53.8474 9.6937 55.7858 9.6937C57.9273 9.6937 59.3451 11.0814 59.3451 13.7422C59.3451 16.4031 57.9273 17.794 55.9888 17.794Z" fill="black"/>
<path d="M79.2862 6.5083H76.6831C76.363 6.5083 76.1035 6.76766 76.1035 7.0876V20.3951C76.1035 20.715 76.363 20.9744 76.6831 20.9744H79.2862C79.6063 20.9744 79.8658 20.715 79.8658 20.3951V7.0876C79.8658 6.76766 79.6063 6.5083 79.2862 6.5083Z" fill="black"/>
<path d="M73.7294 0.926411C73.1329 0.785744 72.5216 0.717613 71.9088 0.723495C68.307 0.723495 65.9756 2.63485 65.9756 6.80121V20.3967C65.9709 20.4737 65.9825 20.5509 66.0098 20.6231C66.037 20.6953 66.0792 20.7609 66.1337 20.8156C66.1881 20.8704 66.2535 20.913 66.3256 20.9406C66.3977 20.9682 66.4748 20.9803 66.5519 20.976H69.1289C69.2062 20.9808 69.2837 20.9691 69.3562 20.9416C69.4287 20.9142 69.4945 20.8717 69.5493 20.8169C69.6041 20.7622 69.6467 20.6964 69.6741 20.6239C69.7015 20.5515 69.7132 20.474 69.7084 20.3967V9.69441H73.3823C73.4602 9.70144 73.5387 9.69129 73.6122 9.66467C73.6857 9.63804 73.7524 9.59558 73.8077 9.54032C73.863 9.48505 73.9054 9.41833 73.9321 9.34485C73.9587 9.27137 73.9689 9.19296 73.9619 9.11513V7.11867C73.9718 7.03889 73.9639 6.95791 73.9387 6.88157C73.9135 6.80523 73.8717 6.73543 73.8162 6.6772C73.7608 6.61897 73.6931 6.57376 73.6181 6.54484C73.543 6.51591 73.4625 6.50398 73.3823 6.50992H69.7084V6.18263C69.7084 4.59202 70.4026 3.78034 72.0005 3.78034C72.5801 3.78034 73.2022 3.92762 73.4183 3.92762C73.7654 3.92762 73.9095 3.72471 73.9684 3.37778L74.2598 1.87227C74.2888 1.74857 74.3074 1.62267 74.3155 1.49589C74.309 1.18496 74.1354 1.01478 73.7294 0.926411Z" fill="black"/>
<path d="M1.96463 17.2759C0.779304 17.2759 0 18.0254 0 19.269C0 20.5127 0.782588 21.2655 2.05632 21.2655C3.24165 21.2655 4.02096 20.4865 4.02096 19.269C4.02096 18.0515 3.23837 17.2759 1.96463 17.2759Z" fill="black"/>
<path d="M77.9431 0.729004C76.7545 0.729004 75.9785 1.48177 75.9785 2.72546C75.9785 3.96915 76.7611 4.7219 78.0348 4.7219C79.2202 4.7219 79.9995 3.9397 79.9995 2.72546C79.9995 1.51123 79.2136 0.729004 77.9431 0.729004Z" fill="black"/>
</g>
<defs>
<clipPath id="clip0_409_4">
<rect width="80" height="22" fill="white"/>
</clipPath>
</defs>
</svg>
