<svg width="20" height="20" viewBox="0 0 20 20" fill="none" xmlns="http://www.w3.org/2000/svg">
	<g clipPath="url(#clip0_363_579)">
		<path d="M16.0004 8.19999C16.0004 9.92124 15.4416 11.5112 14.5004 12.8012L19.2479 17.5525C19.7166 18.0212 19.7166 18.7825 19.2479 19.2512C18.7791 19.72 18.0179 19.72 17.5491 19.2512L12.8016 14.5C11.5116 15.445 9.92164 16 8.20039 16C3.89164 16 0.400391 12.5087 0.400391 8.19999C0.400391 3.89124 3.89164 0.399994 8.20039 0.399994C12.5091 0.399994 16.0004 3.89124 16.0004 8.19999ZM8.20039 13.6C11.1816 13.6 13.6004 11.1812 13.6004 8.19999C13.6004 5.21874 11.1816 2.79999 8.20039 2.79999C5.21914 2.79999 2.80039 5.21874 2.80039 8.19999C2.80039 11.1812 5.21914 13.6 8.20039 13.6Z" fill="#7A00E6" />
	</g>
	<defs>
		<clipPath id="clip0_363_579">
			<rect width="19.2" height="19.2" fill="white" transform="translate(0.400391 0.399994)" />
		</clipPath>
	</defs>
</svg>
