<svg width="41" height="41" viewBox="0 0 41 41" fill="none" xmlns="http://www.w3.org/2000/svg">
<rect x="1.33008" y="1.37988" width="39" height="39" rx="19.5" stroke="white"/>
<g clip-path="url(#clip0_355_254)">
<path d="M29.2307 19.1416C27.5797 19.1456 25.9693 18.6307 24.6268 17.6698V24.3718C24.6263 25.6131 24.2469 26.8246 23.5393 27.8444C22.8317 28.8643 21.8296 29.6438 20.667 30.0787C19.5044 30.5137 18.2368 30.5833 17.0335 30.2783C15.8303 29.9733 14.7488 29.3083 13.9338 28.3721C13.1187 27.4359 12.6089 26.2732 12.4725 25.0394C12.3361 23.8057 12.5796 22.5597 13.1704 21.468C13.7613 20.3764 14.6713 19.4911 15.7788 18.9307C16.8864 18.3702 18.1387 18.1612 19.3682 18.3316V21.7025C18.8055 21.5255 18.2014 21.5309 17.642 21.7178C17.0825 21.9046 16.5965 22.2635 16.2532 22.7431C15.9099 23.2227 15.7269 23.7985 15.7304 24.3883C15.7338 24.9781 15.9236 25.5517 16.2725 26.0273C16.6214 26.5028 17.1117 26.8559 17.6733 27.0362C18.2349 27.2164 18.8391 27.2147 19.3996 27.0311C19.9601 26.8475 20.4482 26.4915 20.7943 26.0139C21.1405 25.5363 21.3268 24.9616 21.3268 24.3718V11.27H24.6268C24.6245 11.5487 24.6479 11.827 24.6966 12.1014C24.8112 12.7139 25.0497 13.2967 25.3973 13.8139C25.7449 14.3312 26.1943 14.7721 26.7182 15.1096C27.4634 15.6024 28.3372 15.8651 29.2307 15.8649V19.1416Z" fill="white"/>
</g>
<defs>
<clipPath id="clip0_355_254">
<rect width="19.2" height="19.2" fill="white" transform="translate(11.2305 11.27)"/>
</clipPath>
</defs>
</svg>
