<svg width="41" height="41" viewBox="0 0 41 41" fill="none" xmlns="http://www.w3.org/2000/svg">
<rect x="1.33008" y="1.37988" width="39" height="39" rx="19.5" stroke="white"/>
<g clip-path="url(#clip0_355_257)">
<path d="M29.5526 16.473C29.3432 15.6846 28.7263 15.0638 27.9431 14.8531C26.5234 14.4702 20.8307 14.4702 20.8307 14.4702C20.8307 14.4702 15.1381 14.4702 13.7184 14.8531C12.9351 15.0638 12.3183 15.6846 12.1089 16.473C11.7285 17.9019 11.7285 20.8831 11.7285 20.8831C11.7285 20.8831 11.7285 23.8644 12.1089 25.2933C12.3183 26.0816 12.9351 26.6766 13.7184 26.8873C15.1381 27.2702 20.8307 27.2702 20.8307 27.2702C20.8307 27.2702 26.5234 27.2702 27.9431 26.8873C28.7263 26.6766 29.3432 26.0816 29.5526 25.2933C29.933 23.8644 29.933 20.8831 29.933 20.8831C29.933 20.8831 29.933 17.9019 29.5526 16.473ZM18.9689 23.5899V18.1764L23.7269 20.8832L18.9689 23.5899Z" fill="white"/>
</g>
<defs>
<clipPath id="clip0_355_257">
<rect width="19.2" height="19.2" fill="white" transform="translate(11.2305 11.27)"/>
</clipPath>
</defs>
</svg>
